<svg width="167" height="45" viewBox="0 0 167 45" fill="none" xmlns="http://www.w3.org/2000/svg">
<path d="M15.0123 17.7264C20.8646 14.9275 25.4446 10.1778 28.0739 4.24077C26.3776 2.45964 24.1724 1.18741 21.7975 0.424077L20.5253 0C20.4405 0.169631 20.3557 0.424087 20.3557 0.593718C18.3201 6.36116 14.1642 11.026 8.56635 13.6553C4.66485 15.5212 1.78112 18.9138 0.424077 22.985L0 24.2572C0.169631 24.342 0.42408 24.4268 0.593711 24.4268C2.2052 25.0205 3.81669 25.7839 5.34337 26.7168C7.46375 22.9001 10.8564 19.6771 15.0123 17.7264Z" fill="#22577A"/>
<path d="M39.6087 18.0657C36.4705 22.8153 32.145 26.632 26.8016 29.1765C22.476 31.2121 19.1682 35.0288 17.6415 39.6088L17.2175 41.0506C18.829 42.4925 20.7797 43.5951 22.9001 44.2736L24.1723 44.6977C24.2571 44.5281 24.342 44.2736 24.342 44.104C26.3775 38.3365 30.5335 33.6717 36.1313 31.0424C40.0328 29.1765 43.0013 25.7839 44.2736 21.7127L44.6976 20.4405C42.9165 19.9316 41.2202 19.0835 39.6087 18.0657Z" fill="#57CC99"/>
<path d="M13.8249 36.6403C15.9453 31.5513 19.8468 27.3954 24.8509 25.0205C29.4309 22.8153 33.2476 19.4227 35.8769 15.2668C33.9261 13.4008 32.3146 11.2805 31.1272 8.73599C27.9891 14.5034 23.0698 19.1683 17.0479 22.052C13.5705 23.6635 10.7716 26.4624 9.07526 29.855C10.9412 31.6362 12.4679 33.8413 13.6553 36.301C13.6553 36.301 13.7401 36.4706 13.8249 36.6403Z" fill="#38A3A5"/>
<path d="M83.336 8.576L81.14 17H78.656L77.312 11.456L75.92 17H73.436L71.3 8.576H73.496L74.708 14.708L76.208 8.576H78.464L79.904 14.708L81.128 8.576H83.336ZM89.5731 17.096C88.9171 17.096 88.3251 16.956 87.7971 16.676C87.2771 16.396 86.8651 15.996 86.5611 15.476C86.2651 14.956 86.1171 14.348 86.1171 13.652C86.1171 12.964 86.2691 12.36 86.5731 11.84C86.8771 11.312 87.2931 10.908 87.8211 10.628C88.3491 10.348 88.9411 10.208 89.5971 10.208C90.2531 10.208 90.8451 10.348 91.3731 10.628C91.9011 10.908 92.3171 11.312 92.6211 11.84C92.9251 12.36 93.0771 12.964 93.0771 13.652C93.0771 14.34 92.9211 14.948 92.6091 15.476C92.3051 15.996 91.8851 16.396 91.3491 16.676C90.8211 16.956 90.2291 17.096 89.5731 17.096ZM89.5731 15.32C89.9651 15.32 90.2971 15.176 90.5691 14.888C90.8491 14.6 90.9891 14.188 90.9891 13.652C90.9891 13.116 90.8531 12.704 90.5811 12.416C90.3171 12.128 89.9891 11.984 89.5971 11.984C89.1971 11.984 88.8651 12.128 88.6011 12.416C88.3371 12.696 88.2051 13.108 88.2051 13.652C88.2051 14.188 88.3331 14.6 88.5891 14.888C88.8531 15.176 89.1811 15.32 89.5731 15.32ZM98.3777 11.42C98.6177 11.052 98.9177 10.764 99.2777 10.556C99.6377 10.34 100.038 10.232 100.478 10.232V12.404H99.9137C99.4017 12.404 99.0177 12.516 98.7617 12.74C98.5057 12.956 98.3777 13.34 98.3777 13.892V17H96.3257V10.304H98.3777V11.42ZM107.711 17L105.671 14.192V17H103.619V8.12H105.671V13.028L107.699 10.304H110.231L107.447 13.664L110.255 17H107.711ZM116.556 12.008H115.452V17H113.4V12.008H112.656V10.304H113.4V10.112C113.4 9.288 113.636 8.664 114.108 8.24C114.58 7.808 115.272 7.592 116.184 7.592C116.336 7.592 116.448 7.596 116.52 7.604V9.344C116.128 9.32 115.852 9.376 115.692 9.512C115.532 9.648 115.452 9.892 115.452 10.244V10.304H116.556V12.008ZM121.733 8.12V17H119.681V8.12H121.733ZM128.428 17.096C127.772 17.096 127.18 16.956 126.652 16.676C126.132 16.396 125.72 15.996 125.416 15.476C125.12 14.956 124.972 14.348 124.972 13.652C124.972 12.964 125.124 12.36 125.428 11.84C125.732 11.312 126.148 10.908 126.676 10.628C127.204 10.348 127.796 10.208 128.452 10.208C129.108 10.208 129.7 10.348 130.228 10.628C130.756 10.908 131.172 11.312 131.476 11.84C131.78 12.36 131.932 12.964 131.932 13.652C131.932 14.34 131.776 14.948 131.464 15.476C131.16 15.996 130.74 16.396 130.204 16.676C129.676 16.956 129.084 17.096 128.428 17.096ZM128.428 15.32C128.82 15.32 129.152 15.176 129.424 14.888C129.704 14.6 129.844 14.188 129.844 13.652C129.844 13.116 129.708 12.704 129.436 12.416C129.172 12.128 128.844 11.984 128.452 11.984C128.052 11.984 127.72 12.128 127.456 12.416C127.192 12.696 127.06 13.108 127.06 13.652C127.06 14.188 127.188 14.6 127.444 14.888C127.708 15.176 128.036 15.32 128.428 15.32ZM144.792 10.304L142.98 17H140.712L139.656 12.656L138.564 17H136.308L134.484 10.304H136.536L137.484 15.092L138.612 10.304H140.784L141.924 15.068L142.86 10.304H144.792ZM77.228 20.576V22.22H73.796V23.996H76.364V25.592H73.796V29H71.744V20.576H77.228ZM81.4985 21.608C81.1385 21.608 80.8425 21.504 80.6105 21.296C80.3865 21.08 80.2745 20.816 80.2745 20.504C80.2745 20.184 80.3865 19.92 80.6105 19.712C80.8425 19.496 81.1385 19.388 81.4985 19.388C81.8505 19.388 82.1385 19.496 82.3625 19.712C82.5945 19.92 82.7105 20.184 82.7105 20.504C82.7105 20.816 82.5945 21.08 82.3625 21.296C82.1385 21.504 81.8505 21.608 81.4985 21.608ZM82.5185 22.304V29H80.4665V22.304H82.5185ZM90.1256 29L88.8416 27.14L87.7616 29H85.5416L87.7496 25.58L85.4816 22.304H87.7856L89.0696 24.152L90.1496 22.304H92.3696L90.1256 25.676L92.4296 29H90.1256Z" fill="#22577A"/>
</svg>
